<?xml version="1.0" encoding="utf-8"?>
<!-- Generator: Adobe Illustrator 16.0.0, SVG Export Plug-In . SVG Version: 6.00 Build 0)  -->
<!DOCTYPE svg PUBLIC "-//W3C//DTD SVG 1.1//EN" "http://www.w3.org/Graphics/SVG/1.1/DTD/svg11.dtd">

<svg version="1.1" id="Layer_1" xmlns="http://www.w3.org/2000/svg" xmlns:xlink="http://www.w3.org/1999/xlink" x="0px" y="0px"
	 width="344.33px" height="144.33px" viewBox="0 0 344.33 144.33" enable-background="new 0 0 344.33 144.33" xml:space="preserve">

<style type="text/css">
	.st0{ fill:#E52822 } 

	#icon {
		animation: icon 2s infinite;
	}

	@keyframes icon {
		0% { transform:  translateX(0); }
		30% { transform:  translateX(-10px); }
		50% { transform:  translateX(3px); }
		80% { transform:  translateX(3px); }
		100% { transform:  translateX(0); }
	}

</style>
<g id="icon">
	<g>
		<path fill="#E52420" d="M320.937,85.233c-0.055,0.008-0.109,0.014-0.162,0.021c0.033-0.061,0.047-0.09,0.08-0.15
			c-0.531,0.074-1.092,0.068-1.611,0.199c-57.512,14.604-92.236-10.781-118.273-26.897c-13.129-8.127-27.121-17.279-42.094-21.686
			C112.274,23.004,64.13,47.781,29.103,77.874c2.352,1.109,3.631,1.67,6.26,2.83c35.939-22.552,81.311-39.927,123.445-28.608
			c13.594,3.654,26.582,11.104,39.008,17.544c11.236,5.822,35.055,21.781,52.682,24.627c-17.803,0.891-47.283-15.523-61.326-20.416
			c-9.318-3.248-18.797-6.556-28.297-8.927C120.485,54.844,77.53,67.948,40.21,84.267c2.74,1.113,4.133,1.691,6.812,2.896
			c36.064-11.426,76.242-19.715,113.66-12.002c8.928,1.842,17.861,4.514,26.57,7.17c12.9,3.934,34.291,14.859,52.562,16.923
			c-22.789-0.535-51.062-10.933-69.645-14.659c-2.883-0.58-5.537-1.098-7.863-1.527c-36.428-6.727-75.213-1.211-110.951,7.27
			c2.508,1.256,3.705,1.916,5.863,3.328c34.088-5.854,70.473-9.328,104.723-3.482c2.217,0.377,4.748,0.828,7.512,1.297
			c17.023,2.877,34.068,9.61,51.232,11.587c-19.203-0.332-38.543-5.122-57.553-7.938c-33.764-5-69.635-3.258-103.328,1.678
			c1.428,1.546,2.023,2.354,2.848,4.099c32.584-4.427,67.406-5.108,99.979-0.461c26.305,3.752,53.189,5.574,79.545,5.574
			C281.565,106.018,320.341,86.222,320.937,85.233z"/>
	</g>
	<g>
		<circle fill="#272D66" cx="50.463" cy="84.421" r="27.069"/>
	</g>
	<g>
		<polygon fill="#FFFFFF" points="50.464,70.134 55.105,79.536 65.485,81.044 57.975,88.364 59.747,98.705 50.464,93.823 
			41.179,98.705 42.952,88.364 35.44,81.044 45.821,79.536 		"/>
	</g>
</g>
</svg>
