<?xml version="1.0" encoding="utf-8"?>
<!-- Generator: Adobe Illustrator 16.0.0, SVG Export Plug-In . SVG Version: 6.00 Build 0)  -->
<!DOCTYPE svg PUBLIC "-//W3C//DTD SVG 1.1//EN" "http://www.w3.org/Graphics/SVG/1.1/DTD/svg11.dtd">
<svg version="1.1" id="Layer_1" xmlns="http://www.w3.org/2000/svg" xmlns:xlink="http://www.w3.org/1999/xlink" x="0px" y="0px"
	 width="441.237px" height="152.577px" viewBox="0 0 441.237 152.577" enable-background="new 0 0 441.237 152.577"
	 xml:space="preserve">
<g>
	<g>
		<g>
			<path fill="#272D66" d="M62.378,114.784H44.259v29.977H26.941v-29.977H8.734v-9.438h53.645V114.784z"/>
			<path fill="#272D66" d="M68.683,144.761v-39.414h28.955c3.078,0,5.92,0.398,8.525,1.195c2.605,0.795,4.84,1.83,6.705,3.107
				s3.332,2.74,4.396,4.385c1.066,1.648,1.6,3.303,1.6,4.969c0,2.295-0.799,4.434-2.398,6.412c-1.6,1.98-3.818,3.6-6.662,4.857
				l13.324,14.488h-19.541l-11.102-12.102h-6.482v12.102H68.683z M86.003,123.222h10.924c1.066,0,2.057-0.369,2.975-1.109
				s1.377-1.777,1.377-3.109c0-1.369-0.533-2.414-1.598-3.137c-1.066-0.721-2.133-1.082-3.199-1.082H86.003V123.222z"/>
			<path fill="#272D66" d="M155.634,135.489c2.012,0,3.729-0.277,5.15-0.832c1.42-0.555,2.574-1.285,3.463-2.193
				c0.889-0.906,1.539-1.951,1.953-3.135c0.414-1.186,0.623-2.424,0.623-3.721v-20.262h17.318v20.262
				c0,2.74-0.562,5.303-1.688,7.689s-2.873,4.449-5.24,6.189c-2.369,1.738-5.344,3.107-8.926,4.107
				c-3.584,0.998-7.803,1.498-12.654,1.498c-5.035,0-9.342-0.527-12.924-1.582s-6.527-2.471-8.836-4.246
				c-2.311-1.777-3.998-3.84-5.062-6.189c-1.066-2.35-1.6-4.838-1.6-7.467v-20.262h17.318v20.262c0,1.297,0.207,2.545,0.623,3.748
				c0.412,1.203,1.064,2.258,1.953,3.164s2.027,1.629,3.42,2.164C151.917,135.222,153.621,135.489,155.634,135.489z"/>
			<path fill="#272D66" d="M241.783,144.761v-20.762l-10.568,14.6h-9.236l-10.57-14.6v20.762h-17.318v-39.414h18.918l13.588,18.541
				l13.678-18.541h18.83v39.414H241.783z"/>
			<path fill="#272D66" d="M269.937,144.761v-39.414h27.178c3.078,0,5.92,0.398,8.525,1.195c2.605,0.795,4.842,1.83,6.707,3.107
				s3.33,2.74,4.396,4.385c1.064,1.648,1.598,3.303,1.598,4.969c0,1.74-0.504,3.434-1.51,5.08c-1.008,1.646-2.412,3.107-4.219,4.385
				s-3.996,2.295-6.572,3.053c-2.576,0.76-5.404,1.139-8.482,1.139h-10.303v12.102H269.937z M287.255,123.222h9.148
				c1.066,0,2.057-0.305,2.977-0.916c0.916-0.609,1.375-1.711,1.375-3.303c0-1.627-0.531-2.738-1.598-3.33s-2.131-0.889-3.197-0.889
				h-8.705V123.222z"/>
			<path fill="#272D66" d="M370.208,135.323v9.438h-44.941v-39.414h44.141v9.438h-26.822v5.551h22.916v8.771h-22.916v6.217H370.208z
				"/>
			<path fill="#272D66" d="M378.289,144.761v-39.414h24.246c5.211,0,9.799,0.52,13.768,1.555c3.965,1.037,7.283,2.443,9.947,4.219
				c2.664,1.777,4.676,3.859,6.039,6.246c1.361,2.387,2.043,4.932,2.043,7.633c0,2.996-0.756,5.709-2.266,8.131
				c-1.51,2.426-3.656,4.498-6.438,6.219c-2.785,1.721-6.129,3.053-10.037,3.996s-8.26,1.416-13.057,1.416H378.289z
				 M416.746,124.999c0-1.518-0.326-2.904-0.977-4.164c-0.652-1.258-1.584-2.332-2.797-3.219c-1.215-0.889-2.709-1.582-4.486-2.082
				c-1.775-0.5-3.76-0.75-5.951-0.75h-6.928v20.539h6.928c2.25,0,4.264-0.258,6.041-0.777c1.775-0.518,3.27-1.238,4.484-2.164
				c1.213-0.926,2.131-2.018,2.754-3.275C416.435,127.849,416.746,126.479,416.746,124.999z"/>
		</g>
	</g>
	<g>
		<g>
			<path fill="#E52420" d="M304.449,59.877c-0.055,0.008-0.109,0.014-0.162,0.021c0.033-0.061,0.047-0.09,0.08-0.15
				c-0.531,0.074-1.092,0.068-1.611,0.199c-57.512,14.604-92.236-10.781-118.273-26.898c-13.129-8.127-27.121-17.279-42.094-21.686
				C95.787-2.353,47.642,22.424,12.615,52.518c2.352,1.109,3.631,1.67,6.26,2.83C54.814,32.795,100.185,15.42,142.32,26.739
				c13.594,3.654,26.582,11.104,39.008,17.545c11.236,5.822,35.055,21.781,52.682,24.627c-17.803,0.891-47.283-15.523-61.326-20.416
				c-9.318-3.248-18.797-6.557-28.297-8.928c-40.389-10.08-83.344,3.025-120.664,19.344c2.74,1.113,4.133,1.691,6.812,2.896
				c36.064-11.426,76.242-19.715,113.66-12.002c8.928,1.842,17.861,4.514,26.57,7.17c12.9,3.934,34.291,14.859,52.562,16.922
				c-22.789-0.535-51.062-10.932-69.645-14.659c-2.883-0.58-5.537-1.098-7.863-1.527c-36.428-6.727-75.213-1.211-110.951,7.27
				c2.508,1.256,3.705,1.916,5.863,3.328c34.088-5.854,70.473-9.328,104.723-3.482c2.217,0.377,4.748,0.828,7.512,1.297
				c17.023,2.877,34.068,9.61,51.232,11.586c-19.203-0.332-38.543-5.122-57.553-7.938c-33.764-5-69.635-3.258-103.328,1.678
				c1.428,1.545,2.023,2.354,2.848,4.098c32.584-4.426,67.406-5.108,99.979-0.461c26.305,3.752,53.189,5.574,79.545,5.574
				C265.078,80.661,303.853,60.866,304.449,59.877z"/>
		</g>
		<g>
			<path fill="#272D66" d="M61.044,59.065c0,14.948-12.119,27.067-27.068,27.067S6.906,74.013,6.906,59.065
				c0-14.951,12.121-27.072,27.07-27.072S61.044,44.114,61.044,59.065z"/>
		</g>
		<g>
			<polygon fill="#FFFFFF" points="33.976,44.778 38.618,54.18 48.998,55.688 41.487,63.008 43.259,73.349 33.976,68.467 
				24.691,73.349 26.464,63.008 18.953,55.688 29.333,54.18 			"/>
		</g>
	</g>
</g>
</svg>
