<?xml version="1.0" encoding="utf-8"?>
<!-- Generator: Adobe Illustrator 16.0.0, SVG Export Plug-In . SVG Version: 6.00 Build 0)  -->
<!DOCTYPE svg PUBLIC "-//W3C//DTD SVG 1.1//EN" "http://www.w3.org/Graphics/SVG/1.1/DTD/svg11.dtd">
<svg version="1.1" id="Layer_1" xmlns="http://www.w3.org/2000/svg" xmlns:xlink="http://www.w3.org/1999/xlink" x="0px" y="0px"
	 width="671.004px" height="54.976px" viewBox="0 0 671.004 54.976" enable-background="new 0 0 671.004 54.976"
	 xml:space="preserve">
<path fill="#E62B23" d="M335.501,0.839c-14.948,0-27.069,12.121-27.069,27.072c0,14.946,12.121,27.065,27.069,27.065
	s27.067-12.119,27.067-27.065C362.568,12.96,350.449,0.839,335.501,0.839z M344.783,42.193l-9.282-4.881l-9.284,4.881l1.772-10.34
	l-7.512-7.32l10.381-1.508l4.643-9.402l4.643,9.402l10.379,1.508l-7.51,7.32L344.783,42.193z"/>
<path fill="#E62B23" d="M489.718,0.839c-14.948,0-27.069,12.121-27.069,27.072c0,14.946,12.121,27.065,27.069,27.065
	s27.067-12.119,27.067-27.065C516.785,12.96,504.666,0.839,489.718,0.839z M499,42.193l-9.282-4.881l-9.284,4.881l1.772-10.34
	l-7.512-7.32l10.381-1.508l4.643-9.402l4.643,9.402l10.379,1.508l-7.51,7.32L499,42.193z"/>
<path fill="#E62B23" d="M643.937,0.839c-14.948,0-27.069,12.121-27.069,27.072c0,14.946,12.121,27.065,27.069,27.065
	s27.067-12.119,27.067-27.065C671.004,12.96,658.885,0.839,643.937,0.839z M653.219,42.193l-9.282-4.881l-9.284,4.881l1.772-10.34
	l-7.512-7.32l10.381-1.508l4.643-9.402l4.643,9.402l10.379,1.508l-7.51,7.32L653.219,42.193z"/>
<path fill="#E62B23" d="M181.284,0.839c-14.948,0-27.069,12.121-27.069,27.072c0,14.946,12.121,27.065,27.069,27.065
	s27.067-12.119,27.067-27.065C208.352,12.96,196.232,0.839,181.284,0.839z M190.566,42.193l-9.282-4.881L172,42.193l1.772-10.34
	l-7.512-7.32l10.381-1.508l4.643-9.402l4.643,9.402l10.379,1.508l-7.51,7.32L190.566,42.193z"/>
<path fill="#252F66" d="M0,27.067c0,14.949,12.121,27.07,27.071,27.07c14.946,0,27.065-12.121,27.065-27.07S42.018,0,27.071,0
	C12.122,0,0,12.119,0,27.067z M41.354,17.785l-4.881,9.283l4.881,9.285l-17.66-1.773v7.512L12.785,27.067l10.909-15.021v7.511
	L41.354,17.785z"/>
</svg>
